<svg width="522" height="512" viewBox="0 0 522 512" fill="none" xmlns="http://www.w3.org/2000/svg">
<rect x="5" width="512" height="512" rx="62" fill="white"/>
<path d="M87.502 329.996H68.072C68.474 331.604 69.01 336.16 69.412 341.654C69.546 342.726 69.546 344.066 69.68 345.808C51.456 346.076 27.068 346.612 11.792 346.612L12.194 362.826C28.676 361.888 49.58 361.084 69.814 360.816C69.948 363.764 69.948 366.846 69.948 369.794C68.206 369.526 66.464 369.392 64.588 369.392C49.982 369.392 37.788 379.308 37.788 394.45C37.788 410.798 50.518 419.106 60.836 419.106C62.98 419.106 64.99 418.838 66.866 418.436C59.496 426.476 47.704 430.898 34.17 433.712L48.508 447.916C81.204 438.804 91.388 416.56 91.388 399.14C91.388 392.172 89.78 385.874 86.564 380.782C86.564 374.886 86.43 367.516 86.43 360.682C104.654 360.682 117.116 360.95 125.156 361.352L125.29 345.54C118.322 345.406 99.964 345.674 86.43 345.674C86.564 344.066 86.564 342.592 86.564 341.52C86.698 339.376 87.234 332.14 87.502 329.996ZM53.868 394.182C53.868 387.08 58.96 383.462 64.186 383.462C67.804 383.462 71.02 385.07 72.896 388.152C74.772 399.944 69.814 404.232 64.186 404.232C58.826 404.232 53.868 400.346 53.868 394.182ZM128.598 400.48L144.678 417.096C146.956 413.478 150.038 408.252 153.12 403.83C158.882 396.192 168.53 383.06 173.89 376.36C177.776 371.402 180.456 370.732 185.012 375.958C191.444 383.06 201.494 395.656 209.802 405.438C218.244 415.488 229.366 428.888 239.014 438L253.084 422.188C240.354 410.664 228.83 398.738 220.254 389.358C212.348 380.782 201.762 366.98 192.516 358.136C182.734 348.488 174.024 349.426 164.778 360.146C156.336 369.794 146.152 383.596 139.854 390.028C135.834 394.316 132.618 397.264 128.598 400.48ZM219.584 345.674L207.926 350.498C212.884 357.466 216.368 363.898 220.254 372.34L232.314 367.114C229.232 360.95 223.47 351.302 219.584 345.674ZM237.54 338.304L226.016 343.664C230.974 350.364 234.592 356.394 239.014 364.836L250.672 359.208C247.59 353.178 241.56 343.664 237.54 338.304ZM262.727 345.808L264.469 364.166C280.013 360.816 307.349 357.868 319.945 356.528C310.967 363.362 300.113 378.638 300.113 397.934C300.113 426.878 326.645 442.02 354.651 443.896L360.949 425.538C338.303 424.332 317.667 416.292 317.667 394.316C317.667 378.37 329.727 360.95 345.941 356.662C353.043 355.054 364.567 355.054 371.803 354.92L371.669 337.768C362.289 338.036 347.549 338.974 333.747 340.046C309.225 342.19 287.115 344.2 275.993 345.138C273.313 345.406 268.087 345.674 262.727 345.808ZM511.431 390.832C511.431 361.62 490.527 338.572 457.295 338.572C422.589 338.572 395.789 364.97 395.789 395.924C395.789 418.57 408.117 434.918 422.991 434.918C437.597 434.918 449.121 418.302 457.161 391.234C461.047 378.638 463.325 366.31 465.201 354.92C483.291 358.002 493.341 371.804 493.341 390.296C493.341 409.86 479.941 422.188 462.789 426.208C459.171 427.012 455.419 427.816 450.327 428.352L460.377 444.298C494.145 439.072 511.431 419.106 511.431 390.832ZM412.941 394.182C412.941 379.442 424.867 359.878 446.977 355.322C445.503 366.444 442.957 377.834 439.875 387.75C434.381 405.84 429.155 414.282 423.527 414.282C418.301 414.282 412.941 407.716 412.941 394.182Z" fill="black"/>
<g clip-path="url(#clip0_2_23)">
<path d="M141.89 231.75C142.89 219.47 146.01 207.63 153.42 197.85C159.71 189.53 162.64 180.12 166.24 170.74C168.32 165.31 167.68 161.85 163.24 157.98C156.65 152.19 150.8 145.57 144.46 139.49C142.39 137.49 142.46 136.43 144.46 134.49C155.46 123.677 166.363 112.773 177.17 101.78C177.898 101.014 178.787 100.419 179.773 100.037C180.758 99.655 181.816 99.4955 182.87 99.57C195.47 99.66 208.07 99.57 220.67 99.67C221.805 99.7282 222.939 99.5312 223.987 99.0933C225.036 98.6555 225.973 97.988 226.73 97.14C235.103 88.6333 243.54 80.1867 252.04 71.8C283.35 41.1 320.77 25.24 364.69 25.1C368.83 25.1 372.98 25.2 377.12 25.1C379.28 25.02 379.84 25.69 379.94 27.87C382.17 76.42 367.21 118.51 332.87 153.32C324.87 161.46 316.77 169.58 308.56 177.55C307.459 178.508 306.59 179.703 306.019 181.046C305.447 182.388 305.188 183.843 305.26 185.3C305.45 197.4 305.26 209.51 305.38 221.61C305.465 222.823 305.28 224.04 304.837 225.173C304.394 226.306 303.705 227.326 302.82 228.16C292.06 238.74 281.393 249.407 270.82 260.16C268.56 262.47 267.34 262.55 265.07 260.16C258.33 253.08 251.22 246.35 244.44 239.3C242.29 237.06 240.39 236.41 237.52 237.76C235.073 238.772 232.557 239.608 229.99 240.26C222.203 242.442 214.872 246.009 208.35 250.79C198.1 258.52 185.98 262.05 173.18 263.1C171.61 263.7 169.98 263.29 168.38 263.41C166.58 263.65 164.68 262.87 162.96 263.93C156.49 263.93 150.02 263.81 143.56 263.99C141.41 264.05 140.94 263.58 141 261.44C141.19 254.97 141.07 248.5 141.07 242.03C142.12 240.31 141.34 238.42 141.58 236.62C141.7 234.96 141.3 233.32 141.89 231.75Z" fill="#010101"/>
<path d="M141.89 231.75L142.04 236.95C141.74 237.43 141.42 237.45 141.04 236.95V231.95L141.89 231.75Z" fill="#4C4A49"/>
<path d="M141.07 237C141.403 237.032 141.737 237.032 142.07 237C141.89 238.7 142.76 240.61 141.07 242V237Z" fill="#1D1D1D"/>
<path d="M162.96 263.87C164.38 262.21 166.28 263.08 167.96 262.87C168.26 263.1 168.35 263.32 168.24 263.53C168.13 263.74 168.02 263.84 167.92 263.84L162.96 263.87Z" fill="#1D1D1D"/>
<path d="M167.94 263.87C167.903 263.538 167.903 263.202 167.94 262.87L173.14 263.01C173.152 263.31 173.056 263.604 172.87 263.84L167.94 263.87Z" fill="#4C4A49"/>
<path d="M351.14 100.76C345.14 115.56 335.93 128.21 324.98 139.6C313.61 151.42 301.85 162.87 290.27 174.48C289.185 176.346 287.838 178.047 286.27 179.53C274.41 191.337 262.567 203.163 250.74 215.01C249.02 216.73 247.5 218.92 244.55 218.57C242.3 218.5 241.09 216.78 239.72 215.41C222.993 198.71 206.273 181.997 189.56 165.27C188.19 163.89 186.47 162.69 186.33 160.46C186 158.22 187.33 156.75 188.72 155.32C201.287 142.727 213.86 130.143 226.44 117.57C227.652 116.454 228.995 115.491 230.44 114.7C245.78 100.05 259.61 83.82 276.22 70.53C284.75 63.7 293.84 57.64 304.22 53.76C306.22 53.39 307.22 54.76 308.41 55.92C322.72 69.49 335.74 84.31 349.68 98.22C350.424 98.8904 350.935 99.7799 351.14 100.76V100.76Z" fill="white"/>
<path d="M186.49 159.9L245.04 218.45L244.84 218.95C234.7 222.39 224.54 225.78 214.45 229.34C213.759 229.569 213.028 229.655 212.303 229.593C211.578 229.531 210.872 229.322 210.23 228.98C205.99 228.08 204.3 223.98 201.23 221.7C195.3 215.65 189.28 209.7 183.23 203.7C180.93 200.59 176.84 198.92 175.96 194.7C175.618 194.058 175.409 193.352 175.347 192.627C175.285 191.902 175.371 191.171 175.6 190.48C179.16 180.38 182.54 170.22 185.98 160.09L186.49 159.9Z" fill="#4B555A"/>
<path d="M351.14 100.76L304.21 53.76C322.21 44.64 341.54 40.86 361.56 40C364.2 39.89 365.04 40.84 364.93 43.42C364.07 63.44 360.29 82.74 351.14 100.76Z" fill="#E72028"/>
<path d="M186.49 159.9C186.339 160.007 186.164 160.076 185.98 160.1C179.98 152.77 172.88 146.54 166.22 139.88C163.88 137.55 163.96 136.27 166.28 134.08C172.06 128.61 177.64 122.93 183.18 117.23C183.918 116.366 184.84 115.679 185.878 115.219C186.916 114.759 188.045 114.537 189.18 114.57C202.94 114.72 216.69 114.67 230.44 114.7C217.02 128.247 203.6 141.807 190.18 155.38C188.83 156.76 187.15 157.92 186.49 159.9Z" fill="#21BBEE"/>
<path d="M244.84 218.95C244.857 218.769 244.922 218.596 245.03 218.45C247.03 217.79 248.17 216.1 249.56 214.73C263.14 201.323 276.71 187.907 290.27 174.48C290.27 188.07 290.27 201.65 290.35 215.24C290.433 216.459 290.238 217.68 289.781 218.813C289.324 219.946 288.616 220.96 287.71 221.78C281.863 227.4 276.123 233.14 270.49 239C268.57 241 267.44 241.06 265.41 239.05C258.56 232.31 252.27 225.1 244.84 218.95Z" fill="#21BBEE"/>
<path d="M175.96 194.71L183.96 202.71C183.96 204.37 182.88 205.42 181.9 206.52C176.21 212.98 173.81 220.74 172.72 229.09C172.36 231.84 173.15 232.64 175.9 232.28C184.25 231.19 192.01 228.79 198.47 223.1C199.58 222.1 200.63 221.01 202.28 221.03L210.28 229.03C200.69 240.71 187.83 246.03 173.28 247.93C168.54 248.54 163.73 248.63 158.94 248.93C157.27 249.04 156.05 248.71 156.08 246.58C156.33 226.82 159.71 208.3 175.96 194.71Z" fill="#F26422"/>
<path d="M312.39 114.74C312.39 127.59 303.07 136.74 290.07 136.67C277.28 136.62 268.18 127.25 268.26 114.23C268.34 101.67 277.63 92.54 290.34 92.54C303.24 92.54 312.42 101.78 312.39 114.74Z" fill="#A7A6A6"/>
<path d="M260.48 148.18C260.61 149.87 259.55 150.93 258.48 152C246.76 163.72 235.043 175.443 223.33 187.17C221.38 189.12 219.25 190.41 216.9 188.12C214.55 185.83 215.69 183.67 217.67 181.69C229.53 169.87 241.37 158.033 253.19 146.18C254.58 144.78 256.12 143.95 258.07 144.73C258.783 144.98 259.399 145.447 259.832 146.066C260.264 146.685 260.491 147.425 260.48 148.18V148.18Z" fill="#23BBEE"/>
<path d="M202.26 220.99C194.92 229.77 184.76 232.37 174.1 233.89C171.68 234.23 170.7 233.26 171.1 230.84C172.61 220.17 175.22 210.01 184 202.67L202.26 220.99Z" fill="#FFC83F"/>
<path d="M290.2 99.68C298.95 99.62 305.25 105.87 305.26 114.6C305.27 123.33 298.95 129.6 290.21 129.54C281.69 129.49 275.5 123.35 275.4 114.86C275.29 106.1 281.49 99.73 290.2 99.68Z" fill="#CCCCCC"/>
</g>
<defs>
<clipPath id="clip0_2_23">
<rect width="239.16" height="238.94" fill="white" transform="translate(141 25)"/>
</clipPath>
</defs>
</svg>
