<svg width="512" height="512" viewBox="0 0 512 512" fill="none" xmlns="http://www.w3.org/2000/svg">
<rect width="512" height="512" rx="62" fill="white"/>
<path d="M160.096 340.592L137.632 334.832C133.744 355.424 124.24 380.336 110.416 397.04C97.6 412.592 78.16 426.848 55.696 434.48L72.112 451.328C94.288 442.4 114.448 424.832 126.688 409.568C138.352 395.024 147.712 373.28 153.76 356.72C155.488 352.112 157.504 345.776 160.096 340.592ZM294.592 326.192L283.216 330.944C285.808 334.832 288.688 339.872 291.136 344.48L289.408 343.184C286.528 344.192 280.768 344.912 274.576 344.912H223.744C219.424 344.912 210.64 344.48 206.752 343.904V364.352C209.776 364.208 217.696 363.344 223.744 363.344H272.56C269.392 373.568 260.608 387.824 251.104 398.624C237.568 413.744 215.248 431.312 192.064 439.952L206.896 455.504C226.624 446.288 245.776 431.168 261.04 415.184C274.576 428.144 287.968 442.976 297.328 455.936L313.744 441.536C305.248 431.168 287.824 412.736 273.568 400.352C283.216 387.392 291.28 372.128 296.176 360.896C297.472 357.872 300.064 353.552 301.216 351.824L297.904 349.376L306.112 345.92C303.664 340.88 298.336 331.664 294.592 326.192ZM312.736 321.152L301.36 325.904C305.248 331.232 310 339.728 313.024 345.632L324.4 340.736C321.808 335.696 316.624 326.624 312.736 321.152ZM400.432 442.832L412.528 452.768C413.824 451.616 415.552 450.176 418.72 448.448C434.848 440.24 455.584 424.688 467.536 409.136L456.448 393.296C446.8 407.264 432.544 418.64 420.88 423.68V348.368C420.88 341.888 421.744 336.272 421.888 335.84H400.432C400.576 336.272 401.584 341.744 401.584 348.224V432.176C401.584 436.064 401.008 440.096 400.432 442.832ZM333.76 440.672L351.328 452.336C363.568 441.392 372.64 427.28 376.96 411.008C380.848 396.464 381.28 366.08 381.28 349.088C381.28 343.04 382.144 336.704 382.288 335.984H361.12C361.984 339.584 362.416 343.472 362.416 349.232C362.416 366.656 362.272 393.872 358.24 406.256C354.208 418.496 346.432 431.744 333.76 440.672Z" fill="black"/>
<g clip-path="url(#clip0_2_23)">
<path d="M136.89 231.75C137.89 219.47 141.01 207.63 148.42 197.85C154.71 189.53 157.64 180.12 161.24 170.74C163.32 165.31 162.68 161.85 158.24 157.98C151.65 152.19 145.8 145.57 139.46 139.49C137.39 137.49 137.46 136.43 139.46 134.49C150.46 123.677 161.363 112.773 172.17 101.78C172.898 101.014 173.787 100.419 174.773 100.037C175.758 99.655 176.816 99.4955 177.87 99.57C190.47 99.66 203.07 99.57 215.67 99.67C216.805 99.7282 217.939 99.5312 218.987 99.0933C220.036 98.6555 220.973 97.988 221.73 97.14C230.103 88.6333 238.54 80.1867 247.04 71.8C278.35 41.1 315.77 25.24 359.69 25.1C363.83 25.1 367.98 25.2 372.12 25.1C374.28 25.02 374.84 25.69 374.94 27.87C377.17 76.42 362.21 118.51 327.87 153.32C319.87 161.46 311.77 169.58 303.56 177.55C302.459 178.508 301.59 179.703 301.019 181.046C300.447 182.388 300.188 183.843 300.26 185.3C300.45 197.4 300.26 209.51 300.38 221.61C300.465 222.823 300.28 224.04 299.837 225.173C299.394 226.306 298.705 227.326 297.82 228.16C287.06 238.74 276.393 249.407 265.82 260.16C263.56 262.47 262.34 262.55 260.07 260.16C253.33 253.08 246.22 246.35 239.44 239.3C237.29 237.06 235.39 236.41 232.52 237.76C230.073 238.772 227.557 239.608 224.99 240.26C217.203 242.442 209.872 246.009 203.35 250.79C193.1 258.52 180.98 262.05 168.18 263.1C166.61 263.7 164.98 263.29 163.38 263.41C161.58 263.65 159.68 262.87 157.96 263.93C151.49 263.93 145.02 263.81 138.56 263.99C136.41 264.05 135.94 263.58 136 261.44C136.19 254.97 136.07 248.5 136.07 242.03C137.12 240.31 136.34 238.42 136.58 236.62C136.7 234.96 136.3 233.32 136.89 231.75Z" fill="#010101"/>
<path d="M136.89 231.75L137.04 236.95C136.74 237.43 136.42 237.45 136.04 236.95V231.95L136.89 231.75Z" fill="#4C4A49"/>
<path d="M136.07 237C136.403 237.032 136.737 237.032 137.07 237C136.89 238.7 137.76 240.61 136.07 242V237Z" fill="#1D1D1D"/>
<path d="M157.96 263.87C159.38 262.21 161.28 263.08 162.96 262.87C163.26 263.1 163.35 263.32 163.24 263.53C163.13 263.74 163.02 263.84 162.92 263.84L157.96 263.87Z" fill="#1D1D1D"/>
<path d="M162.94 263.87C162.903 263.538 162.903 263.202 162.94 262.87L168.14 263.01C168.152 263.31 168.056 263.604 167.87 263.84L162.94 263.87Z" fill="#4C4A49"/>
<path d="M346.14 100.76C340.14 115.56 330.93 128.21 319.98 139.6C308.61 151.42 296.85 162.87 285.27 174.48C284.185 176.346 282.838 178.047 281.27 179.53C269.41 191.337 257.567 203.163 245.74 215.01C244.02 216.73 242.5 218.92 239.55 218.57C237.3 218.5 236.09 216.78 234.72 215.41C217.993 198.71 201.273 181.997 184.56 165.27C183.19 163.89 181.47 162.69 181.33 160.46C181 158.22 182.33 156.75 183.72 155.32C196.287 142.727 208.86 130.143 221.44 117.57C222.652 116.454 223.995 115.491 225.44 114.7C240.78 100.05 254.61 83.82 271.22 70.53C279.75 63.7 288.84 57.64 299.22 53.76C301.22 53.39 302.22 54.76 303.41 55.92C317.72 69.49 330.74 84.31 344.68 98.22C345.424 98.8904 345.935 99.7799 346.14 100.76Z" fill="white"/>
<path d="M181.49 159.9L240.04 218.45L239.84 218.95C229.7 222.39 219.54 225.78 209.45 229.34C208.759 229.569 208.028 229.655 207.303 229.593C206.578 229.531 205.872 229.322 205.23 228.98C200.99 228.08 199.3 223.98 196.23 221.7C190.3 215.65 184.28 209.7 178.23 203.7C175.93 200.59 171.84 198.92 170.96 194.7C170.618 194.058 170.409 193.352 170.347 192.627C170.285 191.902 170.371 191.171 170.6 190.48C174.16 180.38 177.54 170.22 180.98 160.09L181.49 159.9Z" fill="#4B555A"/>
<path d="M346.14 100.76L299.21 53.76C317.21 44.64 336.54 40.86 356.56 40C359.2 39.89 360.04 40.84 359.93 43.42C359.07 63.44 355.29 82.74 346.14 100.76Z" fill="#E72028"/>
<path d="M181.49 159.9C181.339 160.007 181.164 160.076 180.98 160.1C174.98 152.77 167.88 146.54 161.22 139.88C158.88 137.55 158.96 136.27 161.28 134.08C167.06 128.61 172.64 122.93 178.18 117.23C178.918 116.366 179.84 115.679 180.878 115.219C181.916 114.759 183.045 114.537 184.18 114.57C197.94 114.72 211.69 114.67 225.44 114.7C212.02 128.247 198.6 141.807 185.18 155.38C183.83 156.76 182.15 157.92 181.49 159.9Z" fill="#21BBEE"/>
<path d="M239.84 218.95C239.857 218.769 239.922 218.596 240.03 218.45C242.03 217.79 243.17 216.1 244.56 214.73C258.14 201.323 271.71 187.907 285.27 174.48C285.27 188.07 285.27 201.65 285.35 215.24C285.433 216.459 285.238 217.68 284.781 218.813C284.324 219.946 283.616 220.96 282.71 221.78C276.863 227.4 271.123 233.14 265.49 239C263.57 241 262.44 241.06 260.41 239.05C253.56 232.31 247.27 225.1 239.84 218.95Z" fill="#21BBEE"/>
<path d="M170.96 194.71L178.96 202.71C178.96 204.37 177.88 205.42 176.9 206.52C171.21 212.98 168.81 220.74 167.72 229.09C167.36 231.84 168.15 232.64 170.9 232.28C179.25 231.19 187.01 228.79 193.47 223.1C194.58 222.1 195.63 221.01 197.28 221.03L205.28 229.03C195.69 240.71 182.83 246.03 168.28 247.93C163.54 248.54 158.73 248.63 153.94 248.93C152.27 249.04 151.05 248.71 151.08 246.58C151.33 226.82 154.71 208.3 170.96 194.71Z" fill="#F26422"/>
<path d="M307.39 114.74C307.39 127.59 298.07 136.74 285.07 136.67C272.28 136.62 263.18 127.25 263.26 114.23C263.34 101.67 272.63 92.54 285.34 92.54C298.24 92.54 307.42 101.78 307.39 114.74Z" fill="#A7A6A6"/>
<path d="M255.48 148.18C255.61 149.87 254.55 150.93 253.48 152C241.76 163.72 230.043 175.443 218.33 187.17C216.38 189.12 214.25 190.41 211.9 188.12C209.55 185.83 210.69 183.67 212.67 181.69C224.53 169.87 236.37 158.033 248.19 146.18C249.58 144.78 251.12 143.95 253.07 144.73C253.783 144.98 254.399 145.447 254.832 146.066C255.264 146.685 255.491 147.425 255.48 148.18Z" fill="#23BBEE"/>
<path d="M197.26 220.99C189.92 229.77 179.76 232.37 169.1 233.89C166.68 234.23 165.7 233.26 166.1 230.84C167.61 220.17 170.22 210.01 179 202.67L197.26 220.99Z" fill="#FFC83F"/>
<path d="M285.2 99.68C293.95 99.62 300.25 105.87 300.26 114.6C300.27 123.33 293.95 129.6 285.21 129.54C276.69 129.49 270.5 123.35 270.4 114.86C270.29 106.1 276.49 99.73 285.2 99.68Z" fill="#CCCCCC"/>
</g>
<defs>
<clipPath id="clip0_2_23">
<rect width="239.16" height="238.94" fill="white" transform="translate(136 25)"/>
</clipPath>
</defs>
</svg>
